<svg width="335" height="369" xmlns="http://www.w3.org/2000/svg" xmlns:xlink="http://www.w3.org/1999/xlink" version="1.1" baseProfile="full" viewBox="0 0 335 369">
<rect width="335" height="369" x="0" y="0" id="0" fill="#11131f"></rect>
<path d="M45 329.5L290 329.5" fill="none" stroke="#ffffff66" stroke-opacity="0.25" stroke-dasharray="1"></path>
<path d="M45 271.5L290 271.5" fill="none" stroke="#ffffff66" stroke-opacity="0.25" stroke-dasharray="1"></path>
<path d="M45 213.5L290 213.5" fill="none" stroke="#ffffff66" stroke-opacity="0.25" stroke-dasharray="1"></path>
<path d="M45 155.5L290 155.5" fill="none" stroke="#ffffff66" stroke-opacity="0.25" stroke-dasharray="1"></path>
<path d="M45 98.5L290 98.5" fill="none" stroke="#ffffff66" stroke-opacity="0.25" stroke-dasharray="1"></path>
<path d="M45 40.5L290 40.5" fill="none" stroke="#ffffff66" stroke-opacity="0.25" stroke-dasharray="1"></path>
<path d="M45 329.5L290 329.5" fill="none" stroke="#6E7079" stroke-linecap="round"></path>
<path d="M78.5 329L78.5 334" fill="none" stroke="#6E7079"></path>
<path d="M120.5 329L120.5 334" fill="none" stroke="#6E7079"></path>
<path d="M162.5 329L162.5 334" fill="none" stroke="#6E7079"></path>
<path d="M204.5 329L204.5 334" fill="none" stroke="#6E7079"></path>
<path d="M246.5 329L246.5 334" fill="none" stroke="#6E7079"></path>
<path d="M288.5 329L288.5 334" fill="none" stroke="#6E7079"></path>
<text dominant-baseline="central" text-anchor="end" style="font-size:12px;font-family:sans-serif;" transform="translate(37 329)" fill="rgb(110, 112, 121)">0</text>
<text dominant-baseline="central" text-anchor="end" style="font-size:12px;font-family:sans-serif;" transform="translate(37 271.2)" fill="rgb(110, 112, 121)">20,000</text>
<text dominant-baseline="central" text-anchor="end" style="font-size:12px;font-family:sans-serif;" transform="translate(37 213.4)" fill="rgb(110, 112, 121)">40,000</text>
<text dominant-baseline="central" text-anchor="end" style="font-size:12px;font-family:sans-serif;" transform="translate(37 155.6)" fill="rgb(110, 112, 121)">60,000</text>
<text dominant-baseline="central" text-anchor="end" style="font-size:12px;font-family:sans-serif;" transform="translate(37 97.8)" fill="rgb(110, 112, 121)">80,000</text>
<text dominant-baseline="central" text-anchor="end" style="font-size:12px;font-family:sans-serif;" transform="translate(37 40)" fill="rgb(110, 112, 121)">100,000</text>
<text dominant-baseline="central" text-anchor="start" style="font-size:12px;font-family:sans-serif;" transform="translate(298 329)" fill="rgb(110, 112, 121)">0</text>
<text dominant-baseline="central" text-anchor="start" style="font-size:12px;font-family:sans-serif;" transform="translate(298 280.8333)" fill="rgb(110, 112, 121)">1,000</text>
<text dominant-baseline="central" text-anchor="start" style="font-size:12px;font-family:sans-serif;" transform="translate(298 232.6667)" fill="rgb(110, 112, 121)">2,000</text>
<text dominant-baseline="central" text-anchor="start" style="font-size:12px;font-family:sans-serif;" transform="translate(298 184.5)" fill="rgb(110, 112, 121)">3,000</text>
<text dominant-baseline="central" text-anchor="start" style="font-size:12px;font-family:sans-serif;" transform="translate(298 136.3333)" fill="rgb(110, 112, 121)">4,000</text>
<text dominant-baseline="central" text-anchor="start" style="font-size:12px;font-family:sans-serif;" transform="translate(298 88.1667)" fill="rgb(110, 112, 121)">5,000</text>
<text dominant-baseline="central" text-anchor="start" style="font-size:12px;font-family:sans-serif;" transform="translate(298 40)" fill="rgb(110, 112, 121)">6,000</text>
<text dominant-baseline="central" text-anchor="middle" style="font: normal normal 12px sans-serif" y="6" transform="translate(77.9719 337)" fill="#6E7079">2019</text>
<text dominant-baseline="central" text-anchor="middle" style="font: normal normal 12px sans-serif" y="6" transform="translate(120.0147 337)" fill="#6E7079">2020</text>
<text dominant-baseline="central" text-anchor="middle" style="font: normal normal 12px sans-serif" y="6" transform="translate(162.1727 337)" fill="#6E7079">2021</text>
<text dominant-baseline="central" text-anchor="middle" style="font: normal normal 12px sans-serif" y="6" transform="translate(204.2154 337)" fill="#6E7079">2022</text>
<text dominant-baseline="central" text-anchor="middle" style="font: normal normal 12px sans-serif" y="6" transform="translate(246.2582 337)" fill="#6E7079">2023</text>
<text dominant-baseline="central" text-anchor="middle" style="font: normal normal 12px sans-serif" y="6" transform="translate(288.301 337)" fill="#6E7079">2024</text>
<g clip-path="url(#zr16-c0)">
<path d="M290 93.7965L289.7696 95.3235L289.3089 84.2362L289.0785 85.4164L288.9633 86.4694L288.8481 87.2492L288.3874 88.1535L288.2722 86.9018L287.9267 85.9097L287.8115 85.1988L287.6963 87.4883L287.1204 85.0878L286.4292 84.4312L286.0837 85.2644L285.7381 83.3314L285.2774 84.5959L285.047 83.5189L284.9318 81.3215L284.7014 82.6012L284.4711 69.4013L284.2407 67.9948L283.5496 68.647L283.3192 70.7963L282.8585 71.3749L282.0522 71.5582L281.937 70.5426L281.8218 69.6108L281.5914 70.2803L281.2459 72.0856L280.9003 72.8328L280.5548 74.4803L280.094 70.7325L279.9789 68.9609L279.8636 67.1191L279.5181 68.578L279.4029 71.0375L279.1725 72.1375L279.0573 73.5623L278.9422 75.0549L278.827 76.5864L278.5966 73.9261L278.4814 71.2803L278.2511 72.158L278.0207 73.7537L277.9055 86.7837L277.7903 99.4143L277.6751 112.0079L277.4448 112.7381L277.3296 113.5038L277.2144 114.5742L277.0992 113.205L276.984 102.3725L276.8688 100.1607L276.7536 94.2828L276.5233 93.2491L276.0625 93.9131L275.9474 94.7218L275.6018 96.2183L275.4866 96.9945L275.1411 98.1903L275.0258 96.3138L274.9107 97.6111L274.6803 98.4793L274.5651 99.8516L274.2195 100.7514L273.9892 101.4982L273.874 102.5912L273.7588 104.1648L273.6436 97.6163L273.5284 98.5621L273.4133 100.5663L273.2981 101.385L272.9525 102.3042L272.8373 103.7993L272.7221 102.5102L272.4918 101.4537L272.2614 98.6923L272.1462 99.3965L271.5703 98.6849L271.4551 99.9604L271.1096 98.7615L270.8792 100.0528L270.6488 98.2149L270.4184 99.3251L270.0729 99.9801L269.9577 100.7372L269.7273 87.5222L269.3817 329L268.8058 91.9083L268.2299 91.2268L268.1147 100.9626L267.9995 63.0376L267.7692 63.797L267.654 65.0639L267.3084 69.7427L267.1932 64.7441L266.5021 69.1635L266.3869 64.6989L265.9262 65.2742L265.6958 68.0102L265.5806 65.7143L265.4655 66.5588L265.1199 67.2116L265.0047 67.9333L264.8895 72.7833L264.7743 67.9535L264.0832 82.6671L263.968 68.9693L263.6225 70.0379L263.5073 67.9109L263.2769 73.6113L263.1617 68.0186L262.5858 68.5259L262.4706 74.7664L262.3554 70.4567L261.8947 69.7614L261.6643 76.5035L261.5491 69.036L261.4339 66.9565L260.9732 66.0385L260.858 73.1586L260.7428 66.4863L260.2821 65.9108L260.0517 68.9256L259.9365 66.1682L259.7061 67.0183L259.4758 67.7236L259.2454 74.0482L259.1302 66.8167L258.6695 65.2037L258.5543 63.9744L258.4391 67.4811L258.3239 65.1112L257.8632 66.1648L257.6328 76.7934L257.5176 65.3065L257.2873 66.1533L256.8265 73.5877L256.7113 66.9467L256.2506 66.1167L256.1354 66.8475L256.0202 70.9841L255.905 64.4488L255.7898 65.3524L255.3291 65.9117L255.2139 75.6733L255.0987 66.3825L254.7532 67.2763L254.5228 68.3391L254.1772 69.2861L254.0621 67.718L253.6013 66.7238L253.3709 67.9678L253.1406 66.1916L252.9102 67.4562L252.795 66.1971L252.6798 65.3662L252.5647 66.9538L252.3343 68.1056L252.1039 69.8577L251.9887 68.9562L251.7583 70.3394L251.4128 67.8757L251.1824 68.5783L251.0672 69.5065L250.8369 68.6871L250.4913 69.5972L250.1458 70.53L249.8002 71.3655L249.685 73.0112L249.5698 72.1838L249.4546 73.0149L249.3394 72.0434L249.1091 72.8822L248.9939 74.0515L248.8787 76.4683L248.7635 74.13L248.6483 75.0229L248.1876 76.3722L248.0724 77.5127L247.7269 78.638L247.4965 76.7393L247.2661 77.7581L246.575 79.0275L246.2294 79.7363L246.1142 80.7841L245.9991 79.8514L245.7687 81.4217L245.6535 82.9688L245.5383 81.5834L245.308 80.5587L244.9624 79.6007L244.6168 78.8953L244.3865 79.6978L244.1561 81.2817L243.9257 82.2127L243.6953 83.5934L243.1194 83.1195L243.0042 83.9928L242.7739 83.2287L242.5435 82.065L242.3131 80.3311L242.1979 81.3443L242.0827 82.3225L241.8524 83.7007L241.5068 84.9385L241.3916 81.4249L241.1613 79.332L241.0461 82.1939L240.7005 80.3714L240.4701 81.2749L240.0094 80.3122L239.8942 78.1169L239.779 79.5271L239.6638 80.8124L239.5487 81.664L238.8575 83.4044L238.7424 78.8164L238.6272 81.3031L238.512 80.5301L238.3968 82.5868L238.1664 83.541L238.0512 84.4948L237.9361 85.8706L237.7057 88.4758L237.4753 87.4607L237.2449 88.4349L236.8994 87.7881L236.669 89.2311L236.3235 89.9875L236.2083 88.0703L236.0931 88.8394L235.8627 90.1082L235.6323 91.3873L235.402 93.1033L235.2868 94.3177L234.9412 95.8063L234.7109 97.1869L234.3653 98.5499L233.6742 99.112L233.559 100.239L233.2134 101.1855L233.0983 102.9902L232.9831 102.1214L232.7527 103.3606L232.4072 105.0818L232.1768 106.4493L222.9619 174.5853L222.8467 172.5153L222.7316 171.5789L222.6164 170.4479L222.386 169.1118L222.1556 168.27L222.0404 167.5035L221.6949 166.8468L221.4645 165.8381L221.3493 165.0966L220.8886 165.9117L220.7734 166.7162L220.543 167.7965L220.3127 168.9803L220.1975 170.3464L219.5063 170.0639L218.7 170.9873L218.3545 169.8948L218.2393 167.6065L217.8938 168.5985L217.5482 169.8495L217.3178 170.764L217.0874 172.0524L216.8571 172.8477L216.5115 173.5794L215.8204 174.3196L215.4749 175.1127L215.2445 174.3461L214.6685 175.7129L214.323 176.4342L213.8622 177.2688L213.7471 177.9875L213.1711 178.5502L212.9408 179.3573L212.7104 180.3642L212.0193 180.5359L211.9041 179.2681L211.6737 180.4418L211.3282 181.254L210.6371 182.166L210.4067 183.0537L210.2915 183.8766L210.1763 193.361L210.0611 210.9177L195.087 205.0337L194.511 204.5071L194.2807 214.0997L193.3592 225.5394L193.244 220.7268L193.1288 218.0466L192.8985 217.0458L192.6681 215.9753L192.4377 214.9225L192.3225 214.1396L191.977 215.3911L191.8618 223.1337L191.6314 224.3711L191.2858 226.2896L191.0555 227.5262L190.9403 230.369L190.3644 230.8402L189.7884 231.4316L189.4429 232.3908L189.2125 233.1862L188.7518 233.8317L188.4062 234.7829L188.291 235.5229L188.0607 236.3964L187.7151 237.1547L187.4847 238.1112L187.2543 239.1037L187.024 239.878L186.7936 241.0613L186.6784 242.0028L186.5632 242.9185L186.448 243.9696L186.2177 245.7926L186.1025 246.9132L185.8721 247.81L185.6418 248.8L185.5266 250.2771L185.4114 251.975L185.181 253.1262L184.8354 254.1077L184.6051 255.1291L184.4899 255.9549L184.2595 256.8554L184.1443 258.0119L184.0291 258.8206L183.7988 260.9497L183.6836 261.7854L183.5684 262.7525L183.4532 264.3231L183.2229 265.2843L182.5317 265.6306L182.3014 266.3707L181.7254 267.084L181.6102 267.9689L181.3799 269.1821L181.1495 270.0579L180.9191 271.7078L180.3432 272.791L179.9977 273.8571L179.7673 274.5305L179.5369 275.2662L179.3065 276.1701L179.0762 276.987L178.7306 277.7692L177.9243 277.8169L177.3484 278.6823L177.118 279.6246L176.8876 280.3309L176.5421 281.5364L176.1965 282.2565L176.0813 283.0299L175.7358 283.71L175.1599 284.3288L174.4687 284.0225L173.6624 284.0959L173.0865 284.6264L172.5106 285.1152L171.9346 285.948L171.3587 286.5253L170.898 287.1162L170.3221 287.5273L169.8613 288.3142L169.5157 289.1765L169.055 289.8462L168.4791 290.3949L168.0183 289.8212L167.3272 290.2758L166.6361 290.5462L165.945 291.0413L165.4843 290.3907L164.9083 289.7998L164.102 289.8654L163.4109 290.0638L162.6046 290.1823L161.9135 289.9343L161.2224 289.5121L160.4161 289.3088L159.725 289.6435L159.149 290.0745L158.4579 290.2591L157.882 289.8394L157.1909 289.6096L156.6149 290.1894L156.1542 290.8218L155.8087 291.503L155.3479 290.8992L155.0023 289.8541L154.5416 289.2288L154.196 288.4195L153.7353 287.7813L152.929 287.7497L152.4683 288.3644L151.662 288.3305L150.9709 288.6421L150.5101 289.1809L149.9342 289.6715L149.1279 289.9081L148.7823 290.5729L148.0912 290.8412L147.7457 291.5497L147.0545 291.9876L146.2482 291.9173L145.5571 292.1087L144.866 292.4077L144.0597 292.5941L143.3686 292.4318L142.5623 292.3002L141.8712 292.5623L141.1801 292.9854L140.6041 293.4674L139.7978 293.5642L139.3371 294.232L138.8764 294.7946L137.7245 295.822L137.1486 295.3775L136.5726 294.8197L136.2271 294.1713L135.4208 294.1833L134.8448 293.5356L134.4993 294.3234L133.8082 293.8842L133.1171 294.0493L132.4259 294.2193L131.7348 293.9531L131.2741 295.1059L130.9285 295.7633L130.583 295.0314L129.8919 295.4501L129.6615 298.0533L129.0856 299.4379L128.9704 295.5863L128.1641 295.7029L127.5882 295.1187L126.897 295.3605L126.0907 295.1306L125.2844 295.4569L124.9389 296.115L124.1326 295.7333L123.5567 297.3489L114.6874 299.2248L114.457 298.3162L113.8811 297.7245L113.1899 297.4131L112.3836 297.4879L111.8077 298.0878L111.0014 298.2048L110.1951 298.081L109.6192 297.5364L108.8129 297.4047L108.1218 297.0605L107.4307 296.873L106.8547 296.3719L106.1636 296.5659L105.4725 296.2957L104.7814 296.4804L103.9751 296.4987L103.8599 292.6877L103.1688 292.3469L102.8232 291.632L102.5929 290.834L102.0169 289.1646L101.3258 289.7L100.9803 290.6141L100.5195 291.5526L98.4462 295.4616L98.331 291.4732L98.1006 290.7226L97.4095 290.8954L96.7184 296.6841L92.8021 285.353L92.111 285.0776L91.3047 286.9486L86.6972 301.4024L86.1213 300.7728L85.6606 300.1186L85.315 299.3859L85.0846 300.3907L84.7391 301.2742L84.3935 302.0872L84.048 302.7937L83.8176 303.5395L83.7024 306.3482L81.6291 304.472L80.8228 304.3506L80.1316 309.4458L80.0165 323.8274L79.7861 325.1644L79.6709 326.2022L79.5557 326.9487L79.4405 327.8605L78.7494 328.2439L78.0583 328.602L77.3672 328.8326L76.5609 328.9137L75.7546 328.9351L74.9483 328.9166L74.142 328.9286L73.3357 328.9673L72.5294 328.9664L71.7231 328.9822L70.9168 328.9947L70.1105 328.9864L69.3042 328.9743L68.4979 328.9657L67.6916 328.9569L66.8853 328.9641L66.079 328.9639L65.2727 328.9657L64.4664 328.988L63.6601 328.995L62.8538 328.9962L62.0475 328.9978L61.2412 328.993L60.4349 328.9529L59.6286 328.9579L58.8223 328.9985L58.016 328.9995L57.2097 328.9998L56.4034 328.9991L55.5971 328.9989L54.7908 328.999L53.9845 328.9987L53.1782 328.9988L52.3719 328.9984L51.5656 328.9973L50.7593 328.9895L49.953 328.9906L49.1467 328.9995L48.3404 328.9994L47.5341 328.9994L46.7278 328.9914L45.9215 328.9915L45.1152 329L45 329L45.8063 329L46.6126 329L47.4189 329L48.2252 329L49.0315 329L49.8378 329L50.6441 329L51.4504 329L52.2567 329L53.063 329L53.8693 329L54.6756 329L55.4819 329L56.2882 329L57.0945 329L57.9008 329L58.7071 329L59.5134 329L60.3197 329L61.126 329L61.9323 329L62.7386 329L63.5449 329L64.3512 329L65.1575 329L65.9638 329L66.7701 329L67.5764 329L68.3827 329L69.189 329L69.9953 329L70.8016 329L71.6079 329L72.4142 329L73.2205 329L74.0268 329L74.8331 329L75.6394 329L76.4457 329L77.252 329L78.0583 329L78.8646 329L79.6709 329L80.4772 329L81.2835 329L83.7024 329L84.5087 329L85.315 329L86.1213 329L91.3047 329L92.111 329L96.7184 329L97.5247 329L98.331 329L100.4043 329L101.2106 329L102.0169 329L102.8232 329L103.6295 329L104.4358 329L105.2421 329L106.0484 329L106.8547 329L107.661 329L108.4673 329L109.2736 329L110.0799 329L110.8862 329L111.6925 329L112.4988 329L113.3051 329L114.1114 329L123.5567 329L124.363 329L125.1693 329L125.9756 329L126.7819 329L127.5882 329L128.3945 329L129.2007 329L130.007 329L130.8134 329L131.6197 329L132.4259 329L133.2323 329L134.0386 329L134.8448 329L135.6512 329L136.4575 329L137.2637 329L138.8764 329L139.6826 329L140.489 329L141.2953 329L142.1015 329L142.9079 329L143.7142 329L144.5204 329L145.3268 329L146.1331 329L146.9393 329L147.7457 329L148.552 329L149.3582 329L150.1646 329L150.9709 329L151.7771 329L152.5835 329L153.3898 329L154.196 329L155.0023 329L155.8087 329L156.6149 329L157.4212 329L158.2276 329L159.0338 329L159.8401 329L160.6465 329L161.4527 329L162.259 329L163.0654 329L163.8716 329L164.6779 329L165.4843 329L166.2905 329L167.0968 329L167.9032 329L168.7095 329L169.5157 329L170.3221 329L171.1284 329L171.9346 329L172.741 329L173.5473 329L174.3535 329L175.1599 329L175.9662 329L176.7724 329L177.5788 329L178.3851 329L179.1913 329L179.9977 329L180.804 329L181.6102 329L182.4165 329L183.2229 329L184.0291 329L184.8354 329L185.6418 329L186.448 329L187.2543 329L188.0607 329L188.8669 329L189.6732 329L190.4796 329L191.2858 329L192.0921 329L192.8985 329L194.2807 329L195.087 329L210.0611 329L210.8674 329L211.6737 329L212.48 329L213.2863 329L214.0926 329L214.8989 329L215.7052 329L216.5115 329L217.3178 329L218.1241 329L218.9304 329L219.7367 329L220.543 329L221.3493 329L222.1556 329L222.9619 329L231.9464 329L232.7527 329L233.559 329L234.3653 329L235.1716 329L235.9779 329L236.7842 329L237.5905 329L238.3968 329L239.2031 329L240.0094 329L240.8157 329L241.622 329L242.4283 329L243.2346 329L244.0409 329L244.8472 329L245.6535 329L246.4598 329L247.2661 329L248.0724 329L248.8787 329L249.685 329L250.4913 329L251.2976 329L252.1039 329L252.9102 329L253.7165 329L254.5228 329L255.3291 329L256.1354 329L256.9417 329L257.748 329L258.5543 329L259.3606 329L260.1669 329L260.9732 329L261.7795 329L262.5858 329L263.3921 329L264.1984 329L265.0047 329L265.811 329L266.6173 329L267.4236 329L268.2299 329L269.3817 329L270.188 329L270.9944 329L271.8007 329L272.607 329L273.4133 329L274.2195 329L275.0258 329L275.8322 329L276.6385 329L277.4448 329L278.2511 329L279.0573 329L279.8636 329L280.67 329L281.4763 329L282.2826 329L283.0889 329L283.8952 329L284.7014 329L285.5078 329L286.3141 329L287.1204 329L287.9267 329L288.733 329L289.5392 329Z" fill="url(#zr16-g0)" fill-opacity="0.5"></path>
<path d="M290 93.7965L289.7696 95.3235L289.3089 84.2362L289.0785 85.4164L288.9633 86.4694L288.8481 87.2492L288.3874 88.1535L288.2722 86.9018L287.9267 85.9097L287.8115 85.1988L287.6963 87.4883L287.1204 85.0878L286.4292 84.4312L286.0837 85.2644L285.7381 83.3314L285.2774 84.5959L285.047 83.5189L284.9318 81.3215L284.7014 82.6012L284.4711 69.4013L284.2407 67.9948L283.5496 68.647L283.3192 70.7963L282.8585 71.3749L282.0522 71.5582L281.937 70.5426L281.8218 69.6108L281.5914 70.2803L281.2459 72.0856L280.9003 72.8328L280.5548 74.4803L280.094 70.7325L279.9789 68.9609L279.8636 67.1191L279.5181 68.578L279.4029 71.0375L279.1725 72.1375L279.0573 73.5623L278.9422 75.0549L278.827 76.5864L278.5966 73.9261L278.4814 71.2803L278.2511 72.158L278.0207 73.7537L277.9055 86.7837L277.7903 99.4143L277.6751 112.0079L277.4448 112.7381L277.3296 113.5038L277.2144 114.5742L277.0992 113.205L276.984 102.3725L276.8688 100.1607L276.7536 94.2828L276.5233 93.2491L276.0625 93.9131L275.9474 94.7218L275.6018 96.2183L275.4866 96.9945L275.1411 98.1903L275.0258 96.3138L274.9107 97.6111L274.6803 98.4793L274.5651 99.8516L274.2195 100.7514L273.9892 101.4982L273.874 102.5912L273.7588 104.1648L273.6436 97.6163L273.5284 98.5621L273.4133 100.5663L273.2981 101.385L272.9525 102.3042L272.8373 103.7993L272.7221 102.5102L272.4918 101.4537L272.2614 98.6923L272.1462 99.3965L271.5703 98.6849L271.4551 99.9604L271.1096 98.7615L270.8792 100.0528L270.6488 98.2149L270.4184 99.3251L270.0729 99.9801L269.9577 100.7372L269.7273 87.5222L269.3817 329L268.8058 91.9083L268.2299 91.2268L268.1147 100.9626L267.9995 63.0376L267.7692 63.797L267.654 65.0639L267.3084 69.7427L267.1932 64.7441L266.5021 69.1635L266.3869 64.6989L265.9262 65.2742L265.6958 68.0102L265.5806 65.7143L265.4655 66.5588L265.1199 67.2116L265.0047 67.9333L264.8895 72.7833L264.7743 67.9535L264.0832 82.6671L263.968 68.9693L263.6225 70.0379L263.5073 67.9109L263.2769 73.6113L263.1617 68.0186L262.5858 68.5259L262.4706 74.7664L262.3554 70.4567L261.8947 69.7614L261.6643 76.5035L261.5491 69.036L261.4339 66.9565L260.9732 66.0385L260.858 73.1586L260.7428 66.4863L260.2821 65.9108L260.0517 68.9256L259.9365 66.1682L259.7061 67.0183L259.4758 67.7236L259.2454 74.0482L259.1302 66.8167L258.6695 65.2037L258.5543 63.9744L258.4391 67.4811L258.3239 65.1112L257.8632 66.1648L257.6328 76.7934L257.5176 65.3065L257.2873 66.1533L256.8265 73.5877L256.7113 66.9467L256.2506 66.1167L256.1354 66.8475L256.0202 70.9841L255.905 64.4488L255.7898 65.3524L255.3291 65.9117L255.2139 75.6733L255.0987 66.3825L254.7532 67.2763L254.5228 68.3391L254.1772 69.2861L254.0621 67.718L253.6013 66.7238L253.3709 67.9678L253.1406 66.1916L252.9102 67.4562L252.795 66.1971L252.6798 65.3662L252.5647 66.9538L252.3343 68.1056L252.1039 69.8577L251.9887 68.9562L251.7583 70.3394L251.4128 67.8757L251.1824 68.5783L251.0672 69.5065L250.8369 68.6871L250.4913 69.5972L250.1458 70.53L249.8002 71.3655L249.685 73.0112L249.5698 72.1838L249.4546 73.0149L249.3394 72.0434L249.1091 72.8822L248.9939 74.0515L248.8787 76.4683L248.7635 74.13L248.6483 75.0229L248.1876 76.3722L248.0724 77.5127L247.7269 78.638L247.4965 76.7393L247.2661 77.7581L246.575 79.0275L246.2294 79.7363L246.1142 80.7841L245.9991 79.8514L245.7687 81.4217L245.6535 82.9688L245.5383 81.5834L245.308 80.5587L244.9624 79.6007L244.6168 78.8953L244.3865 79.6978L244.1561 81.2817L243.9257 82.2127L243.6953 83.5934L243.1194 83.1195L243.0042 83.9928L242.7739 83.2287L242.5435 82.065L242.3131 80.3311L242.1979 81.3443L242.0827 82.3225L241.8524 83.7007L241.5068 84.9385L241.3916 81.4249L241.1613 79.332L241.0461 82.1939L240.7005 80.3714L240.4701 81.2749L240.0094 80.3122L239.8942 78.1169L239.779 79.5271L239.6638 80.8124L239.5487 81.664L238.8575 83.4044L238.7424 78.8164L238.6272 81.3031L238.512 80.5301L238.3968 82.5868L238.1664 83.541L238.0512 84.4948L237.9361 85.8706L237.7057 88.4758L237.4753 87.4607L237.2449 88.4349L236.8994 87.7881L236.669 89.2311L236.3235 89.9875L236.2083 88.0703L236.0931 88.8394L235.8627 90.1082L235.6323 91.3873L235.402 93.1033L235.2868 94.3177L234.9412 95.8063L234.7109 97.1869L234.3653 98.5499L233.6742 99.112L233.559 100.239L233.2134 101.1855L233.0983 102.9902L232.9831 102.1214L232.7527 103.3606L232.4072 105.0818L232.1768 106.4493L222.9619 174.5853L222.8467 172.5153L222.7316 171.5789L222.6164 170.4479L222.386 169.1118L222.1556 168.27L222.0404 167.5035L221.6949 166.8468L221.4645 165.8381L221.3493 165.0966L220.8886 165.9117L220.7734 166.7162L220.543 167.7965L220.3127 168.9803L220.1975 170.3464L219.5063 170.0639L218.7 170.9873L218.3545 169.8948L218.2393 167.6065L217.8938 168.5985L217.5482 169.8495L217.3178 170.764L217.0874 172.0524L216.8571 172.8477L216.5115 173.5794L215.8204 174.3196L215.4749 175.1127L215.2445 174.3461L214.6685 175.7129L214.323 176.4342L213.8622 177.2688L213.7471 177.9875L213.1711 178.5502L212.9408 179.3573L212.7104 180.3642L212.0193 180.5359L211.9041 179.2681L211.6737 180.4418L211.3282 181.254L210.6371 182.166L210.4067 183.0537L210.2915 183.8766L210.1763 193.361L210.0611 210.9177L195.087 205.0337L194.511 204.5071L194.2807 214.0997L193.3592 225.5394L193.244 220.7268L193.1288 218.0466L192.8985 217.0458L192.6681 215.9753L192.4377 214.9225L192.3225 214.1396L191.977 215.3911L191.8618 223.1337L191.6314 224.3711L191.2858 226.2896L191.0555 227.5262L190.9403 230.369L190.3644 230.8402L189.7884 231.4316L189.4429 232.3908L189.2125 233.1862L188.7518 233.8317L188.4062 234.7829L188.291 235.5229L188.0607 236.3964L187.7151 237.1547L187.4847 238.1112L187.2543 239.1037L187.024 239.878L186.7936 241.0613L186.6784 242.0028L186.5632 242.9185L186.448 243.9696L186.2177 245.7926L186.1025 246.9132L185.8721 247.81L185.6418 248.8L185.5266 250.2771L185.4114 251.975L185.181 253.1262L184.8354 254.1077L184.6051 255.1291L184.4899 255.9549L184.2595 256.8554L184.1443 258.0119L184.0291 258.8206L183.7988 260.9497L183.6836 261.7854L183.5684 262.7525L183.4532 264.3231L183.2229 265.2843L182.5317 265.6306L182.3014 266.3707L181.7254 267.084L181.6102 267.9689L181.3799 269.1821L181.1495 270.0579L180.9191 271.7078L180.3432 272.791L179.9977 273.8571L179.7673 274.5305L179.5369 275.2662L179.3065 276.1701L179.0762 276.987L178.7306 277.7692L177.9243 277.8169L177.3484 278.6823L177.118 279.6246L176.8876 280.3309L176.5421 281.5364L176.1965 282.2565L176.0813 283.0299L175.7358 283.71L175.1599 284.3288L174.4687 284.0225L173.6624 284.0959L173.0865 284.6264L172.5106 285.1152L171.9346 285.948L171.3587 286.5253L170.898 287.1162L170.3221 287.5273L169.8613 288.3142L169.5157 289.1765L169.055 289.8462L168.4791 290.3949L168.0183 289.8212L167.3272 290.2758L166.6361 290.5462L165.945 291.0413L165.4843 290.3907L164.9083 289.7998L164.102 289.8654L163.4109 290.0638L162.6046 290.1823L161.9135 289.9343L161.2224 289.5121L160.4161 289.3088L159.725 289.6435L159.149 290.0745L158.4579 290.2591L157.882 289.8394L157.1909 289.6096L156.6149 290.1894L156.1542 290.8218L155.8087 291.503L155.3479 290.8992L155.0023 289.8541L154.5416 289.2288L154.196 288.4195L153.7353 287.7813L152.929 287.7497L152.4683 288.3644L151.662 288.3305L150.9709 288.6421L150.5101 289.1809L149.9342 289.6715L149.1279 289.9081L148.7823 290.5729L148.0912 290.8412L147.7457 291.5497L147.0545 291.9876L146.2482 291.9173L145.5571 292.1087L144.866 292.4077L144.0597 292.5941L143.3686 292.4318L142.5623 292.3002L141.8712 292.5623L141.1801 292.9854L140.6041 293.4674L139.7978 293.5642L139.3371 294.232L138.8764 294.7946L137.7245 295.822L137.1486 295.3775L136.5726 294.8197L136.2271 294.1713L135.4208 294.1833L134.8448 293.5356L134.4993 294.3234L133.8082 293.8842L133.1171 294.0493L132.4259 294.2193L131.7348 293.9531L131.2741 295.1059L130.9285 295.7633L130.583 295.0314L129.8919 295.4501L129.6615 298.0533L129.0856 299.4379L128.9704 295.5863L128.1641 295.7029L127.5882 295.1187L126.897 295.3605L126.0907 295.1306L125.2844 295.4569L124.9389 296.115L124.1326 295.7333L123.5567 297.3489L114.6874 299.2248L114.457 298.3162L113.8811 297.7245L113.1899 297.4131L112.3836 297.4879L111.8077 298.0878L111.0014 298.2048L110.1951 298.081L109.6192 297.5364L108.8129 297.4047L108.1218 297.0605L107.4307 296.873L106.8547 296.3719L106.1636 296.5659L105.4725 296.2957L104.7814 296.4804L103.9751 296.4987L103.8599 292.6877L103.1688 292.3469L102.8232 291.632L102.5929 290.834L102.0169 289.1646L101.3258 289.7L100.9803 290.6141L100.5195 291.5526L98.4462 295.4616L98.331 291.4732L98.1006 290.7226L97.4095 290.8954L96.7184 296.6841L92.8021 285.353L92.111 285.0776L91.3047 286.9486L86.6972 301.4024L86.1213 300.7728L85.6606 300.1186L85.315 299.3859L85.0846 300.3907L84.7391 301.2742L84.3935 302.0872L84.048 302.7937L83.8176 303.5395L83.7024 306.3482L81.6291 304.472L80.8228 304.3506L80.1316 309.4458L80.0165 323.8274L79.7861 325.1644L79.6709 326.2022L79.5557 326.9487L79.4405 327.8605L78.7494 328.2439L78.0583 328.602L77.3672 328.8326L76.5609 328.9137L75.7546 328.9351L74.9483 328.9166L74.142 328.9286L73.3357 328.9673L72.5294 328.9664L71.7231 328.9822L70.9168 328.9947L70.1105 328.9864L69.3042 328.9743L68.4979 328.9657L67.6916 328.9569L66.8853 328.9641L66.079 328.9639L65.2727 328.9657L64.4664 328.988L63.6601 328.995L62.8538 328.9962L62.0475 328.9978L61.2412 328.993L60.4349 328.9529L59.6286 328.9579L58.8223 328.9985L58.016 328.9995L57.2097 328.9998L56.4034 328.9991L55.5971 328.9989L54.7908 328.999L53.9845 328.9987L53.1782 328.9988L52.3719 328.9984L51.5656 328.9973L50.7593 328.9895L49.953 328.9906L49.1467 328.9995L48.3404 328.9994L47.5341 328.9994L46.7278 328.9914L45.9215 328.9915L45.1152 329" fill="none" stroke="url(#zr16-g0)" stroke-width="2" stroke-linejoin="bevel"></path>
</g>
<path d="M0 0l300 0l0 30l-300 0Z" transform="matrix(1,0,0,-1,22.5,362)" fill="rgb(47,69,84)" fill-opacity="0"></path>
<g clip-path="url(#zr16-c1)">
<polygon points="300 0 0 0 0 18.8 1 18.9 2.1 19 3.1 19.1 4.2 19.1 5.2 19.1 6.3 19.1 7.3 19.2 8.4 19.3 9.4 19.5 10.5 19.6 11.5 19.7 12.6 19.7 13.6 19.7 14.7 19.8 15.7 20 16.8 20 17.8 20 18.8 20.1 19.9 20.8 20.9 21 22 20.9 23 20.9 24.1 20.8 25.1 20.8 26.2 21 27.2 21 28.3 21.1 29.3 21 30.4 21 31.4 21.1 32.5 21.3 33.5 20.3 34.6 21.3 35.6 21.3 36.6 21.4 37.7 21.5 38.7 21.6 39.8 21.7 40.8 20.5 41.9 21.8 42.9 22 44 22.1 45 22 46.1 22.1 47.1 22.2 48.2 19.6 49.2 22.1 50.3 22.3 51.3 22.3 52.4 22.3 53.4 22.2 54.5 22.5 55.5 22.5 56.5 22.3 57.6 22.6 58.6 22.6 59.7 22.6 60.7 22.5 61.8 22.4 62.8 22.3 63.9 22.3 64.9 22.3 66 22.3 67 22.3 68.1 22.2 69.1 22.2 70.2 22.4 71.2 22.5 72.3 22.4 73.3 22.6 74.3 22.7 75.4 22.7 76.4 22.8 77.5 23.6 78.5 23.6 79.6 24 80.6 24.1 81.7 24.1 82.7 24.1 83.8 24.1 84.8 24.1 85.9 24.1 86.9 24.2 88 23.1 89 23.5 90.1 23.7 91.1 23.6 92.1 23.5 93.2 23.6 94.2 23.7 95.3 24.3 96.3 24.1 97.4 24 98.4 24 99.5 24.2 100.5 24.4 101.6 24.3 102.6 24.3 103.7 24.3 104.7 24.2 105.8 24.1 106.8 20.6 107.9 20.3 108.9 20.3 109.9 20.9 111 20.6 112 20 113.1 19.8 114.1 19.6 115.2 19.3 116.2 19 117.3 18.8 118.3 18.3 119.4 17.8 120.4 17.3 121.5 17 122.5 16.4 123.6 15.8 124.6 15.7 125.7 15.6 126.7 15.4 127.7 15.2 128.8 14.9 129.8 14.5 130.9 14.4 131.9 14.6 133 14.3 134 13.9 135.1 13.6 136.1 13.6 137.2 13.7 138.2 13.7 139.3 13.5 140.3 13.4 141.4 13.2 142.4 13 143.5 12.9 144.5 12.8 145.5 12.7 146.6 12.7 147.6 12.6 148.7 12.6 149.7 12.5 150.8 12.5 151.8 12.4 152.9 12.4 153.9 12.4 155 12.3 156 12.2 157.1 12.2 158.1 12.2 159.2 12.2 160.2 12.2 161.3 12.2 162.3 12.2 163.4 12.2 164.4 12 165.4 11.9 166.5 12.1 167.5 12.3 168.6 12.4 169.6 12.4 170.7 12.4 171.7 12.3 172.8 12.3 173.8 12.4 174.9 12.5 175.9 12.4 177 12.4 178 12.4 179.1 12.3 180.1 12.4 181.2 12.4 182.2 12.4 183.2 12.4 184.3 12.4 185.3 12.5 186.4 12.4 187.4 12.4 188.5 12.3 189.5 12.3 190.6 12.1 191.6 11.9 192.7 12 193.7 12.1 194.8 12.1 195.8 12.2 196.9 12.2 197.9 12.3 199 12.2 200 12.2 201 12.1 202.1 12.2 203.1 12.1 204.2 11.1 205.2 12.1 206.3 12.3 207.3 12.3 208.4 12.3 209.4 12.4 210.5 12.2 211.5 12.2 212.6 11.7 213.6 11.9 214.7 12 215.7 12.1 216.8 12 217.8 12 218.8 11.9 219.9 12.2 220.9 12.3 222 12.3 223 12.3 224.1 12.2 225.1 12.3 226.2 12.2 227.2 12.2 228.3 12.2 229.3 12.5 230.4 12.5 231.4 12.6 232.5 12.7 233.5 12.5 234.6 11.5 235.6 12.8 236.6 12.8 237.7 13.3 238.7 13.4 239.8 11.1 240.8 11.6 241.9 12 242.9 11.2 244 10.5 245 10 246.1 10 247.1 6.6 248.2 5.9 249.2 5.8 250.3 5.7 251.3 5.7 252.4 5.7 253.4 5.7 254.5 5.7 255.5 5.6 256.5 5.6 257.6 5.6 258.6 5.6 259.7 5.6 260.7 5.6 261.8 5.6 262.8 5.6 263.9 5.6 264.9 5.6 266 5.6 267 5.6 268.1 5.6 269.1 5.6 270.2 5.6 271.2 5.6 272.3 5.6 273.3 5.6 274.3 5.6 275.4 5.6 276.4 5.6 277.5 5.6 278.5 5.6 279.6 5.6 280.6 5.6 281.7 5.6 282.7 5.6 283.8 5.6 284.8 5.6 285.9 5.6 286.9 5.6 288 5.6 289 5.6 290.1 5.6 291.1 5.6 292.1 5.6 293.2 5.6 294.2 5.6 295.3 5.6 296.3 5.6 297.4 5.6 298.4 5.6 299.5 5.6" transform="matrix(1,0,0,-1,22.5,362)" fill="#d2dbee" fill-opacity="0.2"></polygon>
</g>
<g clip-path="url(#zr16-c2)">
<polygon points="300 0 0 0 0 18.8 1 18.9 2.1 19 3.1 19.1 4.2 19.1 5.2 19.1 6.3 19.1 7.3 19.2 8.4 19.3 9.4 19.5 10.5 19.6 11.5 19.7 12.6 19.7 13.6 19.7 14.7 19.8 15.7 20 16.8 20 17.8 20 18.8 20.1 19.9 20.8 20.9 21 22 20.9 23 20.9 24.1 20.8 25.1 20.8 26.2 21 27.2 21 28.3 21.1 29.3 21 30.4 21 31.4 21.1 32.5 21.3 33.5 20.3 34.6 21.3 35.6 21.3 36.6 21.4 37.7 21.5 38.7 21.6 39.8 21.7 40.8 20.5 41.9 21.8 42.9 22 44 22.1 45 22 46.1 22.1 47.1 22.2 48.2 19.6 49.2 22.1 50.3 22.3 51.3 22.3 52.4 22.3 53.4 22.2 54.5 22.5 55.5 22.5 56.5 22.3 57.6 22.6 58.6 22.6 59.7 22.6 60.7 22.5 61.8 22.4 62.8 22.3 63.9 22.3 64.9 22.3 66 22.3 67 22.3 68.1 22.2 69.1 22.2 70.2 22.4 71.2 22.5 72.3 22.4 73.3 22.6 74.3 22.7 75.4 22.7 76.4 22.8 77.5 23.6 78.5 23.6 79.6 24 80.6 24.1 81.7 24.1 82.7 24.1 83.8 24.1 84.8 24.1 85.9 24.1 86.9 24.2 88 23.1 89 23.5 90.1 23.7 91.1 23.6 92.1 23.5 93.2 23.6 94.2 23.7 95.3 24.3 96.3 24.1 97.4 24 98.4 24 99.5 24.2 100.5 24.4 101.6 24.3 102.6 24.3 103.7 24.3 104.7 24.2 105.8 24.1 106.8 20.6 107.9 20.3 108.9 20.3 109.9 20.9 111 20.6 112 20 113.1 19.8 114.1 19.6 115.2 19.3 116.2 19 117.3 18.8 118.3 18.3 119.4 17.8 120.4 17.3 121.5 17 122.5 16.4 123.6 15.8 124.6 15.7 125.7 15.6 126.7 15.4 127.7 15.2 128.8 14.9 129.8 14.5 130.9 14.4 131.9 14.6 133 14.3 134 13.9 135.1 13.6 136.1 13.6 137.2 13.7 138.2 13.7 139.3 13.5 140.3 13.4 141.4 13.2 142.4 13 143.5 12.9 144.5 12.8 145.5 12.7 146.6 12.7 147.6 12.6 148.7 12.6 149.7 12.5 150.8 12.5 151.8 12.4 152.9 12.4 153.9 12.4 155 12.3 156 12.2 157.1 12.2 158.1 12.2 159.2 12.2 160.2 12.2 161.3 12.2 162.3 12.2 163.4 12.2 164.4 12 165.4 11.9 166.5 12.1 167.5 12.3 168.6 12.4 169.6 12.4 170.7 12.4 171.7 12.3 172.8 12.3 173.8 12.4 174.9 12.5 175.9 12.4 177 12.4 178 12.4 179.1 12.3 180.1 12.4 181.2 12.4 182.2 12.4 183.2 12.4 184.3 12.4 185.3 12.5 186.4 12.4 187.4 12.4 188.5 12.3 189.5 12.3 190.6 12.1 191.6 11.9 192.7 12 193.7 12.1 194.8 12.1 195.8 12.2 196.9 12.2 197.9 12.3 199 12.2 200 12.2 201 12.1 202.1 12.2 203.1 12.1 204.2 11.1 205.2 12.1 206.3 12.3 207.3 12.3 208.4 12.3 209.4 12.4 210.5 12.2 211.5 12.2 212.6 11.7 213.6 11.9 214.7 12 215.7 12.1 216.8 12 217.8 12 218.8 11.9 219.9 12.2 220.9 12.3 222 12.3 223 12.3 224.1 12.2 225.1 12.3 226.2 12.2 227.2 12.2 228.3 12.2 229.3 12.5 230.4 12.5 231.4 12.6 232.5 12.7 233.5 12.5 234.6 11.5 235.6 12.8 236.6 12.8 237.7 13.3 238.7 13.4 239.8 11.1 240.8 11.6 241.9 12 242.9 11.2 244 10.5 245 10 246.1 10 247.1 6.6 248.2 5.9 249.2 5.8 250.3 5.7 251.3 5.7 252.4 5.7 253.4 5.7 254.5 5.7 255.5 5.6 256.5 5.6 257.6 5.6 258.6 5.6 259.7 5.6 260.7 5.6 261.8 5.6 262.8 5.6 263.9 5.6 264.9 5.6 266 5.6 267 5.6 268.1 5.6 269.1 5.6 270.2 5.6 271.2 5.6 272.3 5.6 273.3 5.6 274.3 5.6 275.4 5.6 276.4 5.6 277.5 5.6 278.5 5.6 279.6 5.6 280.6 5.6 281.7 5.6 282.7 5.6 283.8 5.6 284.8 5.6 285.9 5.6 286.9 5.6 288 5.6 289 5.6 290.1 5.6 291.1 5.6 292.1 5.6 293.2 5.6 294.2 5.6 295.3 5.6 296.3 5.6 297.4 5.6 298.4 5.6 299.5 5.6" transform="matrix(1,0,0,-1,22.5,362)" fill="#8fb0f7" fill-opacity="0"></polygon>
</g>
<g clip-path="url(#zr16-c3)">
<polygon points="300 0 0 0 0 18.8 1 18.9 2.1 19 3.1 19.1 4.2 19.1 5.2 19.1 6.3 19.1 7.3 19.2 8.4 19.3 9.4 19.5 10.5 19.6 11.5 19.7 12.6 19.7 13.6 19.7 14.7 19.8 15.7 20 16.8 20 17.8 20 18.8 20.1 19.9 20.8 20.9 21 22 20.9 23 20.9 24.1 20.8 25.1 20.8 26.2 21 27.2 21 28.3 21.1 29.3 21 30.4 21 31.4 21.1 32.5 21.3 33.5 20.3 34.6 21.3 35.6 21.3 36.6 21.4 37.7 21.5 38.7 21.6 39.8 21.7 40.8 20.5 41.9 21.8 42.9 22 44 22.1 45 22 46.1 22.1 47.1 22.2 48.2 19.6 49.2 22.1 50.3 22.3 51.3 22.3 52.4 22.3 53.4 22.2 54.5 22.5 55.5 22.5 56.5 22.3 57.6 22.6 58.6 22.6 59.7 22.6 60.7 22.5 61.8 22.4 62.8 22.3 63.9 22.3 64.9 22.3 66 22.3 67 22.3 68.1 22.2 69.1 22.2 70.2 22.4 71.2 22.5 72.3 22.4 73.3 22.6 74.3 22.7 75.4 22.7 76.4 22.8 77.5 23.6 78.5 23.6 79.6 24 80.6 24.1 81.7 24.1 82.7 24.1 83.8 24.1 84.8 24.1 85.9 24.1 86.9 24.2 88 23.1 89 23.5 90.1 23.7 91.1 23.6 92.1 23.5 93.2 23.6 94.2 23.7 95.3 24.3 96.3 24.1 97.4 24 98.4 24 99.5 24.2 100.5 24.4 101.6 24.3 102.6 24.3 103.7 24.3 104.7 24.2 105.8 24.1 106.8 20.6 107.9 20.3 108.9 20.3 109.9 20.9 111 20.6 112 20 113.1 19.8 114.1 19.6 115.2 19.3 116.2 19 117.3 18.8 118.3 18.3 119.4 17.8 120.4 17.3 121.5 17 122.5 16.4 123.6 15.8 124.6 15.7 125.7 15.6 126.7 15.4 127.7 15.2 128.8 14.9 129.8 14.5 130.9 14.4 131.9 14.6 133 14.3 134 13.9 135.1 13.6 136.1 13.6 137.2 13.7 138.2 13.7 139.3 13.5 140.3 13.4 141.4 13.2 142.4 13 143.5 12.9 144.5 12.8 145.5 12.7 146.6 12.7 147.6 12.6 148.7 12.6 149.7 12.5 150.8 12.5 151.8 12.4 152.9 12.4 153.9 12.4 155 12.3 156 12.2 157.1 12.2 158.1 12.2 159.2 12.2 160.2 12.2 161.3 12.2 162.3 12.2 163.4 12.2 164.4 12 165.4 11.9 166.5 12.1 167.5 12.3 168.6 12.4 169.6 12.4 170.7 12.4 171.7 12.3 172.8 12.3 173.8 12.4 174.9 12.5 175.9 12.4 177 12.4 178 12.4 179.1 12.3 180.1 12.4 181.2 12.4 182.2 12.4 183.2 12.4 184.3 12.4 185.3 12.5 186.4 12.4 187.4 12.4 188.5 12.3 189.5 12.3 190.6 12.1 191.6 11.9 192.7 12 193.7 12.1 194.8 12.1 195.8 12.2 196.9 12.2 197.9 12.3 199 12.2 200 12.2 201 12.1 202.1 12.2 203.1 12.1 204.2 11.1 205.2 12.1 206.3 12.3 207.3 12.3 208.4 12.3 209.4 12.4 210.5 12.2 211.5 12.2 212.6 11.7 213.6 11.9 214.7 12 215.7 12.1 216.8 12 217.8 12 218.8 11.9 219.9 12.2 220.9 12.3 222 12.3 223 12.3 224.1 12.2 225.1 12.3 226.2 12.2 227.2 12.2 228.3 12.2 229.3 12.5 230.4 12.5 231.4 12.6 232.5 12.7 233.5 12.5 234.6 11.5 235.6 12.8 236.6 12.8 237.7 13.3 238.7 13.4 239.8 11.1 240.8 11.6 241.9 12 242.9 11.2 244 10.5 245 10 246.1 10 247.1 6.6 248.2 5.9 249.2 5.8 250.3 5.7 251.3 5.7 252.4 5.7 253.4 5.7 254.5 5.7 255.5 5.6 256.5 5.6 257.6 5.6 258.6 5.6 259.7 5.6 260.7 5.6 261.8 5.6 262.8 5.6 263.9 5.6 264.9 5.6 266 5.6 267 5.6 268.1 5.6 269.1 5.6 270.2 5.6 271.2 5.6 272.3 5.6 273.3 5.6 274.3 5.6 275.4 5.6 276.4 5.6 277.5 5.6 278.5 5.6 279.6 5.6 280.6 5.6 281.7 5.6 282.7 5.6 283.8 5.6 284.8 5.6 285.9 5.6 286.9 5.6 288 5.6 289 5.6 290.1 5.6 291.1 5.6 292.1 5.6 293.2 5.6 294.2 5.6 295.3 5.6 296.3 5.6 297.4 5.6 298.4 5.6 299.5 5.6" transform="matrix(1,0,0,-1,22.5,362)" fill="#d2dbee" fill-opacity="0.2"></polygon>
</g>
<g clip-path="url(#zr16-c1)">
<polyline points="0 18.8 1 18.9 2.1 19 3.1 19.1 4.2 19.1 5.2 19.1 6.3 19.1 7.3 19.2 8.4 19.3 9.4 19.5 10.5 19.6 11.5 19.7 12.6 19.7 13.6 19.7 14.7 19.8 15.7 20 16.8 20 17.8 20 18.8 20.1 19.9 20.8 20.9 21 22 20.9 23 20.9 24.1 20.8 25.1 20.8 26.2 21 27.2 21 28.3 21.1 29.3 21 30.4 21 31.4 21.1 32.5 21.3 33.5 20.3 34.6 21.3 35.6 21.3 36.6 21.4 37.7 21.5 38.7 21.6 39.8 21.7 40.8 20.5 41.9 21.8 42.9 22 44 22.1 45 22 46.1 22.1 47.1 22.2 48.2 19.6 49.2 22.1 50.3 22.3 51.3 22.3 52.4 22.3 53.4 22.2 54.5 22.5 55.5 22.5 56.5 22.3 57.6 22.6 58.6 22.6 59.7 22.6 60.7 22.5 61.8 22.4 62.8 22.3 63.9 22.3 64.9 22.3 66 22.3 67 22.3 68.1 22.2 69.1 22.2 70.2 22.4 71.2 22.5 72.3 22.4 73.3 22.6 74.3 22.7 75.4 22.7 76.4 22.8 77.5 23.6 78.5 23.6 79.6 24 80.6 24.1 81.7 24.1 82.7 24.1 83.8 24.1 84.8 24.1 85.9 24.1 86.9 24.2 88 23.1 89 23.5 90.1 23.7 91.1 23.6 92.1 23.5 93.2 23.6 94.2 23.7 95.3 24.3 96.3 24.1 97.4 24 98.4 24 99.5 24.2 100.5 24.4 101.6 24.3 102.6 24.3 103.7 24.3 104.7 24.2 105.8 24.1 106.8 20.6 107.9 20.3 108.9 20.3 109.9 20.9 111 20.6 112 20 113.1 19.8 114.1 19.6 115.2 19.3 116.2 19 117.3 18.8 118.3 18.3 119.4 17.8 120.4 17.3 121.5 17 122.5 16.4 123.6 15.8 124.6 15.7 125.7 15.6 126.7 15.4 127.7 15.2 128.8 14.9 129.8 14.5 130.9 14.4 131.9 14.6 133 14.3 134 13.9 135.1 13.6 136.1 13.6 137.2 13.7 138.2 13.7 139.3 13.5 140.3 13.4 141.4 13.2 142.4 13 143.5 12.9 144.5 12.8 145.5 12.7 146.6 12.7 147.6 12.6 148.7 12.6 149.7 12.5 150.8 12.5 151.8 12.4 152.9 12.4 153.9 12.4 155 12.3 156 12.2 157.1 12.2 158.1 12.2 159.2 12.2 160.2 12.2 161.3 12.2 162.3 12.2 163.4 12.2 164.4 12 165.4 11.9 166.5 12.1 167.5 12.3 168.6 12.4 169.6 12.4 170.7 12.4 171.7 12.3 172.8 12.3 173.8 12.4 174.9 12.5 175.9 12.4 177 12.4 178 12.4 179.1 12.3 180.1 12.4 181.2 12.4 182.2 12.4 183.2 12.4 184.3 12.4 185.3 12.5 186.4 12.4 187.4 12.4 188.5 12.3 189.5 12.3 190.6 12.1 191.6 11.9 192.7 12 193.7 12.1 194.8 12.1 195.8 12.2 196.9 12.2 197.9 12.3 199 12.2 200 12.2 201 12.1 202.1 12.2 203.1 12.1 204.2 11.1 205.2 12.1 206.3 12.3 207.3 12.3 208.4 12.3 209.4 12.4 210.5 12.2 211.5 12.2 212.6 11.7 213.6 11.9 214.7 12 215.7 12.1 216.8 12 217.8 12 218.8 11.9 219.9 12.2 220.9 12.3 222 12.3 223 12.3 224.1 12.2 225.1 12.3 226.2 12.2 227.2 12.2 228.3 12.2 229.3 12.5 230.4 12.5 231.4 12.6 232.5 12.7 233.5 12.5 234.6 11.5 235.6 12.8 236.6 12.8 237.7 13.3 238.7 13.4 239.8 11.1 240.8 11.6 241.9 12 242.9 11.2 244 10.5 245 10 246.1 10 247.1 6.6 248.2 5.9 249.2 5.8 250.3 5.7 251.3 5.7 252.4 5.7 253.4 5.7 254.5 5.7 255.5 5.6 256.5 5.6 257.6 5.6 258.6 5.6 259.7 5.6 260.7 5.6 261.8 5.6 262.8 5.6 263.9 5.6 264.9 5.6 266 5.6 267 5.6 268.1 5.6 269.1 5.6 270.2 5.6 271.2 5.6 272.3 5.6 273.3 5.6 274.3 5.6 275.4 5.6 276.4 5.6 277.5 5.6 278.5 5.6 279.6 5.6 280.6 5.6 281.7 5.6 282.7 5.6 283.8 5.6 284.8 5.6 285.9 5.6 286.9 5.6 288 5.6 289 5.6 290.1 5.6 291.1 5.6 292.1 5.6 293.2 5.6 294.2 5.6 295.3 5.6 296.3 5.6 297.4 5.6 298.4 5.6 299.5 5.6" transform="matrix(1,0,0,-1,22.5,362)" fill="none" stroke="#d2dbee" stroke-width="0.5"></polyline>
</g>
<g clip-path="url(#zr16-c2)">
<polyline points="0 18.8 1 18.9 2.1 19 3.1 19.1 4.2 19.1 5.2 19.1 6.3 19.1 7.3 19.2 8.4 19.3 9.4 19.5 10.5 19.6 11.5 19.7 12.6 19.7 13.6 19.7 14.7 19.8 15.7 20 16.8 20 17.8 20 18.8 20.1 19.9 20.8 20.9 21 22 20.9 23 20.9 24.1 20.8 25.1 20.8 26.2 21 27.2 21 28.3 21.1 29.3 21 30.4 21 31.4 21.1 32.5 21.3 33.5 20.3 34.6 21.3 35.6 21.3 36.6 21.4 37.7 21.5 38.7 21.6 39.8 21.7 40.8 20.5 41.9 21.8 42.9 22 44 22.1 45 22 46.1 22.1 47.1 22.2 48.2 19.6 49.2 22.1 50.3 22.3 51.3 22.3 52.4 22.3 53.4 22.2 54.5 22.5 55.5 22.5 56.5 22.3 57.6 22.6 58.6 22.6 59.7 22.6 60.7 22.5 61.8 22.4 62.8 22.3 63.9 22.3 64.9 22.3 66 22.3 67 22.3 68.1 22.2 69.1 22.2 70.2 22.4 71.2 22.5 72.3 22.4 73.3 22.6 74.3 22.7 75.4 22.7 76.4 22.8 77.5 23.6 78.5 23.6 79.6 24 80.6 24.1 81.7 24.1 82.7 24.1 83.8 24.1 84.8 24.1 85.9 24.1 86.9 24.2 88 23.1 89 23.5 90.1 23.7 91.1 23.6 92.1 23.5 93.2 23.6 94.2 23.7 95.3 24.3 96.3 24.1 97.4 24 98.4 24 99.5 24.2 100.5 24.4 101.6 24.3 102.6 24.3 103.7 24.3 104.7 24.2 105.8 24.1 106.8 20.6 107.9 20.3 108.9 20.3 109.9 20.9 111 20.6 112 20 113.1 19.8 114.1 19.6 115.2 19.3 116.2 19 117.3 18.8 118.3 18.3 119.4 17.8 120.4 17.3 121.5 17 122.5 16.4 123.6 15.8 124.6 15.7 125.7 15.6 126.7 15.4 127.7 15.2 128.8 14.9 129.8 14.5 130.9 14.4 131.9 14.6 133 14.3 134 13.9 135.1 13.6 136.1 13.6 137.2 13.7 138.2 13.7 139.3 13.5 140.3 13.4 141.4 13.2 142.4 13 143.5 12.9 144.5 12.8 145.5 12.7 146.6 12.7 147.6 12.6 148.7 12.6 149.7 12.5 150.8 12.5 151.8 12.4 152.9 12.4 153.9 12.4 155 12.3 156 12.2 157.1 12.2 158.1 12.2 159.2 12.2 160.2 12.2 161.3 12.2 162.3 12.2 163.4 12.2 164.4 12 165.4 11.9 166.5 12.1 167.5 12.3 168.6 12.4 169.6 12.4 170.7 12.4 171.7 12.3 172.8 12.3 173.8 12.4 174.9 12.5 175.9 12.4 177 12.4 178 12.4 179.1 12.3 180.1 12.4 181.2 12.4 182.2 12.4 183.2 12.4 184.3 12.4 185.3 12.5 186.4 12.4 187.4 12.4 188.5 12.3 189.5 12.3 190.6 12.1 191.6 11.9 192.7 12 193.7 12.1 194.8 12.1 195.8 12.2 196.9 12.2 197.9 12.3 199 12.2 200 12.2 201 12.1 202.1 12.2 203.1 12.1 204.2 11.1 205.2 12.1 206.3 12.3 207.3 12.3 208.4 12.3 209.4 12.4 210.5 12.2 211.5 12.2 212.6 11.7 213.6 11.9 214.7 12 215.7 12.1 216.8 12 217.8 12 218.8 11.9 219.9 12.2 220.9 12.3 222 12.3 223 12.3 224.1 12.2 225.1 12.3 226.2 12.2 227.2 12.2 228.3 12.2 229.3 12.5 230.4 12.5 231.4 12.6 232.5 12.7 233.5 12.5 234.6 11.5 235.6 12.8 236.6 12.8 237.7 13.3 238.7 13.4 239.8 11.1 240.8 11.6 241.9 12 242.9 11.2 244 10.5 245 10 246.1 10 247.1 6.6 248.2 5.9 249.2 5.8 250.3 5.7 251.3 5.7 252.4 5.7 253.4 5.7 254.5 5.7 255.5 5.6 256.5 5.6 257.6 5.6 258.6 5.6 259.7 5.6 260.7 5.6 261.8 5.6 262.8 5.6 263.9 5.6 264.9 5.6 266 5.6 267 5.6 268.1 5.6 269.1 5.6 270.2 5.6 271.2 5.6 272.3 5.6 273.3 5.6 274.3 5.6 275.4 5.6 276.4 5.6 277.5 5.6 278.5 5.6 279.6 5.6 280.6 5.6 281.7 5.6 282.7 5.6 283.8 5.6 284.8 5.6 285.9 5.6 286.9 5.6 288 5.6 289 5.6 290.1 5.6 291.1 5.6 292.1 5.6 293.2 5.6 294.2 5.6 295.3 5.6 296.3 5.6 297.4 5.6 298.4 5.6 299.5 5.6" transform="matrix(1,0,0,-1,22.5,362)" fill="none" stroke="#fff" stroke-width="0.5" stroke-opacity="0.45"></polyline>
</g>
<g clip-path="url(#zr16-c3)">
<polyline points="0 18.8 1 18.9 2.1 19 3.1 19.1 4.2 19.1 5.2 19.1 6.3 19.1 7.3 19.2 8.4 19.3 9.4 19.5 10.5 19.6 11.5 19.7 12.6 19.7 13.6 19.7 14.7 19.8 15.7 20 16.8 20 17.8 20 18.8 20.1 19.9 20.8 20.9 21 22 20.9 23 20.9 24.1 20.8 25.1 20.8 26.2 21 27.2 21 28.3 21.1 29.3 21 30.4 21 31.4 21.1 32.5 21.3 33.5 20.3 34.6 21.3 35.6 21.3 36.6 21.4 37.7 21.5 38.7 21.6 39.8 21.7 40.8 20.5 41.9 21.8 42.9 22 44 22.1 45 22 46.1 22.1 47.1 22.2 48.2 19.6 49.2 22.1 50.3 22.3 51.3 22.3 52.4 22.3 53.4 22.2 54.5 22.5 55.5 22.5 56.5 22.3 57.6 22.6 58.6 22.6 59.7 22.6 60.7 22.5 61.8 22.4 62.8 22.3 63.9 22.3 64.9 22.3 66 22.3 67 22.3 68.1 22.2 69.1 22.2 70.2 22.4 71.2 22.5 72.3 22.4 73.3 22.6 74.3 22.7 75.4 22.7 76.4 22.8 77.5 23.6 78.5 23.6 79.6 24 80.6 24.1 81.7 24.1 82.7 24.1 83.8 24.1 84.8 24.1 85.9 24.1 86.9 24.2 88 23.1 89 23.5 90.1 23.7 91.1 23.6 92.1 23.5 93.2 23.6 94.2 23.7 95.3 24.3 96.3 24.1 97.4 24 98.4 24 99.5 24.2 100.5 24.4 101.6 24.3 102.6 24.3 103.7 24.3 104.7 24.2 105.8 24.1 106.8 20.6 107.9 20.3 108.9 20.3 109.9 20.9 111 20.6 112 20 113.1 19.8 114.1 19.6 115.2 19.3 116.2 19 117.3 18.8 118.3 18.3 119.4 17.8 120.4 17.3 121.5 17 122.5 16.4 123.6 15.8 124.6 15.7 125.7 15.6 126.7 15.4 127.7 15.2 128.8 14.9 129.8 14.5 130.9 14.4 131.9 14.6 133 14.3 134 13.9 135.1 13.6 136.1 13.6 137.2 13.7 138.2 13.7 139.3 13.5 140.3 13.4 141.4 13.2 142.4 13 143.5 12.9 144.5 12.8 145.5 12.7 146.6 12.7 147.6 12.6 148.7 12.6 149.7 12.5 150.8 12.5 151.8 12.4 152.9 12.4 153.9 12.4 155 12.3 156 12.2 157.1 12.2 158.1 12.2 159.2 12.2 160.2 12.2 161.3 12.2 162.3 12.2 163.4 12.2 164.4 12 165.4 11.9 166.5 12.1 167.5 12.3 168.6 12.4 169.6 12.4 170.7 12.4 171.7 12.3 172.8 12.3 173.8 12.4 174.9 12.5 175.9 12.4 177 12.4 178 12.4 179.1 12.3 180.1 12.4 181.2 12.4 182.2 12.4 183.2 12.4 184.3 12.4 185.3 12.5 186.4 12.4 187.4 12.4 188.5 12.3 189.5 12.3 190.6 12.1 191.6 11.9 192.7 12 193.7 12.1 194.8 12.1 195.8 12.2 196.9 12.2 197.9 12.3 199 12.2 200 12.2 201 12.1 202.1 12.2 203.1 12.1 204.2 11.1 205.2 12.1 206.3 12.3 207.3 12.3 208.4 12.3 209.4 12.4 210.5 12.2 211.5 12.2 212.6 11.7 213.6 11.9 214.7 12 215.7 12.1 216.8 12 217.8 12 218.8 11.9 219.9 12.2 220.9 12.3 222 12.3 223 12.3 224.1 12.2 225.1 12.3 226.2 12.2 227.2 12.2 228.3 12.2 229.3 12.5 230.4 12.5 231.4 12.6 232.5 12.7 233.5 12.5 234.6 11.5 235.6 12.8 236.6 12.8 237.7 13.3 238.7 13.4 239.8 11.1 240.8 11.6 241.9 12 242.9 11.2 244 10.5 245 10 246.1 10 247.1 6.6 248.2 5.9 249.2 5.8 250.3 5.7 251.3 5.7 252.4 5.7 253.4 5.7 254.5 5.7 255.5 5.6 256.5 5.6 257.6 5.6 258.6 5.6 259.7 5.6 260.7 5.6 261.8 5.6 262.8 5.6 263.9 5.6 264.9 5.6 266 5.6 267 5.6 268.1 5.6 269.1 5.6 270.2 5.6 271.2 5.6 272.3 5.6 273.3 5.6 274.3 5.6 275.4 5.6 276.4 5.6 277.5 5.6 278.5 5.6 279.6 5.6 280.6 5.6 281.7 5.6 282.7 5.6 283.8 5.6 284.8 5.6 285.9 5.6 286.9 5.6 288 5.6 289 5.6 290.1 5.6 291.1 5.6 292.1 5.6 293.2 5.6 294.2 5.6 295.3 5.6 296.3 5.6 297.4 5.6 298.4 5.6 299.5 5.6" transform="matrix(1,0,0,-1,22.5,362)" fill="none" stroke="#d2dbee" stroke-width="0.5"></polyline>
</g>
<path d="M-10 -10l189 0l0 34l-189 0Z" transform="translate(83 10)" fill="rgb(0,0,0)" fill-opacity="0" stroke="#ccc" stroke-width="0"></path>
<path d="M3.5 0L21.5 0A3.5 3.5 0 0 1 25 3.5L25 10.5A3.5 3.5 0 0 1 21.5 14L3.5 14A3.5 3.5 0 0 1 0 10.5L0 3.5A3.5 3.5 0 0 1 3.5 0" transform="translate(83 10)" fill="#FFB300"></path>
<text dominant-baseline="central" text-anchor="start" style="font-size:12px;font-family:sans-serif;" x="30" y="7" transform="translate(83 10)" fill="white">Channels</text>
<path d="M3.5 0L21.5 0A3.5 3.5 0 0 1 25 3.5L25 10.5A3.5 3.5 0 0 1 21.5 14L3.5 14A3.5 3.5 0 0 1 0 10.5L0 3.5A3.5 3.5 0 0 1 3.5 0" transform="translate(175 10)" fill="url(#zr16-g0)"></path>
<text dominant-baseline="central" text-anchor="start" style="font-size:12px;font-family:sans-serif;" x="30" y="7" transform="translate(175 10)" fill="white">Capacity</text>
<path d="M0 0l300 0l0 30l-300 0Z" transform="matrix(1,0,0,-1,22.5,362)" fill="none"></path>
<path d="M0 0l300 0l0 30l-300 0Z" transform="matrix(1,0,0,-1,22.5,362)" fill="rgb(135,175,255)" fill-opacity="0.2"></path>
<path d="M3.5 0.5L296.5 0.5A3 3 0 0 1 299.5 3.5L299.5 26.5A3 3 0 0 1 296.5 29.5L3.5 29.5A3 3 0 0 1 0.5 26.5L0.5 3.5A3 3 0 0 1 3.5 0.5" transform="matrix(1,0,0,-1,22.5,362)" fill="rgb(0,0,0)" fill-opacity="0" stroke="#d2dbee"></path>
<path d="M0 1.628L0 2M0 0L0 0.375M-0.1 0.375L0.1 0.375A0.1 0.1 0 0 1 0.2 0.475L0.2 1.525A0.1 0.1 0 0 1 0.1 1.625L-0.1 1.625A0.1 0.1 0 0 1 -0.2 1.525L-0.2 0.475A0.1 0.1 0 0 1 -0.1 0.375Z" transform="matrix(15,0,0,-15,23.5,362)" fill="#fff" stroke="#ACB8D1" stroke-width="0.06666666666666667"></path>
<path d="M0 1.628L0 2M0 0L0 0.375M-0.1 0.375L0.1 0.375A0.1 0.1 0 0 1 0.2 0.475L0.2 1.525A0.1 0.1 0 0 1 0.1 1.625L-0.1 1.625A0.1 0.1 0 0 1 -0.2 1.525L-0.2 0.475A0.1 0.1 0 0 1 -0.1 0.375Z" transform="matrix(15,0,0,-15,321.5,362)" fill="#fff" stroke="#ACB8D1" stroke-width="0.06666666666666667"></path>
<g clip-path="url(#zr16-c4)">
<path d="M290 160.2298L289.3089 159.6922L289.1937 158.9929L288.733 158.0883L288.157 157.6721L287.6963 159.3772L287.5811 157.4005L286.89 157.5623L286.4292 156.4265L286.0837 157.4496L285.9685 156.389L285.5078 155.8052L285.2774 156.9901L285.1622 155.4353L284.5863 154.9035L284.3559 153.7446L284.0103 152.2303L283.5496 151.0569L283.204 150.0136L282.8585 151.3748L282.7433 149.6639L282.2826 149.0888L281.5914 148.4964L281.2459 152.2071L281.1307 149.216L280.4396 149.3923L280.3244 147.9588L279.9789 146.7161L279.8636 145.9445L279.7485 145.118L279.4029 147.3346L279.2877 144.8463L279.0573 145.8549L278.4814 144.6729L277.9055 145.7104L277.7903 148.3316L277.6751 146.5601L277.5599 144.1238L277.0992 138.9363L276.984 137.8727L276.8688 134.8469L276.7536 131.8384L276.0625 132.3817L275.8322 133.2892L275.3714 134.2516L275.2562 133.3932L274.7955 134.5088L274.5651 135.9018L274.2195 135.1619L273.4133 135.7052L273.2981 134.9105L272.7221 133.1678L272.3766 131.98L271.5703 131.5523L271.2247 132.4309L270.5336 133.0696L270.4184 133.7718L270.3033 132.6736L269.6121 132.4309L269.3817 329L268.8058 131.3269L268.1147 163.3307L267.9995 129.1825L267.7692 129.9599L267.3084 142.121L267.1932 129.0322L266.5021 140.5489L266.3869 128.4774L265.6958 133.4713L265.5806 128.9455L265.3503 129.827L265.2351 128.2259L264.8895 140.9968L264.7743 126.9745L264.4288 125.0874L264.0832 166.8912L263.968 125.3648L263.6225 124.7435L263.2769 137.6791L263.1617 123.5326L262.9314 124.229L262.8162 123.3129L262.701 124.2319L262.4706 138.6964L262.3554 123.9429L262.0099 122.6973L261.6643 141.832L261.5491 120.5443L261.4339 119.1369L261.3188 119.868L260.858 138.9189L260.7428 119.7293L260.3973 118.4144L260.0517 127.6624L259.9365 119.6108L259.591 118.9288L259.2454 134.9683L259.1302 118.134L258.4391 125.4891L258.3239 117.8797L257.748 118.608L257.6328 150.8662L257.5176 117.6398L257.2873 118.3479L256.8265 136.6532L256.7113 117.9693L256.481 117.2931L256.1354 116.5763L256.0202 128.4485L255.905 116.3278L255.2139 140.3119L255.0987 115.6486L254.7532 116.952L254.5228 118.2352L254.4076 115.8192L254.1772 116.9L254.0621 114.4782L253.7165 115.7267L253.6013 113.8742L253.3709 114.9204L253.2558 113.8077L252.9102 115.2758L252.795 113.3858L252.5647 114.1458L252.4495 112.8136L252.2191 113.799L252.1039 116.5994L251.9887 113.6372L251.7583 114.6371L251.6432 112.8425L251.2976 114.7412L251.1824 113.9233L250.952 115.6255L250.8369 112.4928L250.4913 114.1834L250.3761 112.3454L250.1458 113.8077L250.0306 111.7414L249.685 114.3481L249.5698 112.3194L249.3394 113.3424L249.1091 114.3713L248.8787 116.7439L248.7635 114.5562L248.5331 115.3972L248.0724 116.6428L247.6117 115.7527L247.2661 116.5994L247.1509 114.8683L246.575 115.5013L246.4598 116.3104L246.3446 115.1371L246.1142 116.0272L245.6535 116.7179L245.5383 116.0186L244.9624 116.7671L244.2713 116.9405L244.0409 118.056L243.9257 117.0301L243.6953 117.8161L243.5802 116.8509L243.3498 115.6862L243.2346 116.4174L243.1194 114.6978L242.7739 113.8915L242.3131 112.9436L242.0827 113.9175L241.622 115.0186L241.3916 114.0187L241.1613 111.383L240.9309 112.1864L240.8157 113.0419L240.7005 110.4582L240.0094 111.1402L239.8942 110.1432L239.2031 110.4206L239.0879 108.7964L238.8575 110.1172L238.7424 102.7477L238.2816 99.3808L238.0512 100.1611L237.4753 98.2595L237.2449 97.511L237.1298 96.3117L237.0146 95.5978L236.8994 94.2771L236.4386 93.5748L236.2083 92.8581L235.6323 93.65L234.9412 93.3292L234.3653 93.7945L233.9046 93.0749L233.2134 93.5719L232.9831 92.4015L232.292 93.1731L232.0616 92.4766L222.9619 113.6719L222.8467 109.3947L222.7316 107.9641L222.6164 106.3891L222.5012 105.3024L222.386 104.4383L222.2708 103.5627L222.1556 102.7997L222.0404 101.8894L221.9252 101.0195L221.6949 100.3374L221.4645 98.9589L221.3493 98.0977L220.7734 99.0629L220.4278 100.1351L220.1975 102.031L219.9671 100.9385L219.3912 100.1582L219.1608 99.4357L218.8152 100.1322L218.4697 99.4849L218.3545 98.2133L218.1241 95.5053L218.0089 93.9592L217.8938 90.7657L217.3178 91.809L217.2026 92.65L216.8571 93.6586L216.0508 93.6442L215.59 94.6412L215.3597 93.1355L215.2445 92.3061L214.7837 90.7715L214.4382 90.1531L213.7471 90.4449L213.056 90.9305L212.3648 91.1414L211.9041 89.7831L211.6737 90.4883L211.4433 91.8119L211.213 92.8552L210.7522 93.6066L210.6371 94.6008L210.5219 95.3377L210.4067 96.54L210.2915 97.589L210.1763 112.0882L210.0611 138.2629L195.087 142.7597L194.8566 141.8841L194.2807 160.8627L193.3592 154.7908L193.244 146.6208L193.1288 142.7568L193.0136 141.439L192.8985 140.2194L192.7833 139.3091L192.6681 136.9248L192.5529 136.1936L192.4377 135.0203L192.3225 133.8499L192.0921 134.5232L191.977 135.4596L191.7466 136.263L191.6314 137.2398L191.5162 138.0375L191.2858 139.6963L191.1707 140.624L191.0555 142.6123L190.9403 146.0139L190.8251 145.2336L190.4796 146.2364L190.3644 147.0167L190.134 148.19L189.7884 149.2507L189.5581 150.1726L189.4429 150.9904L189.3277 151.9124L189.2125 152.6117L188.9821 153.5279L188.7518 154.2504L188.6366 154.9642L188.4062 155.9757L188.291 157.0016L188.1758 157.9207L187.9455 158.5969L187.7151 159.857L187.4847 161.3713L187.3695 162.458L187.2543 163.2238L187.1392 164.1486L187.024 165.0619L186.7936 166.7785L186.6784 167.6889L186.5632 169.0558L186.448 170.0731L186.3329 170.9199L186.2177 171.9227L186.1025 173.0065L185.9873 174.8301L185.8721 175.7086L185.7569 176.8993L185.6418 177.9773L185.5266 179.061L185.4114 180.0899L185.2962 180.9482L184.9506 182.1389L184.8354 183.2544L184.7203 184.289L184.6051 185.1242L184.4899 186.6935L184.3747 187.7513L184.2595 188.4882L184.1443 189.7829L184.0291 190.9736L183.914 191.7886L183.7988 193.0371L183.6836 193.9185L183.5684 195.3606L183.4532 197.4674L183.338 198.4934L183.2229 199.4818L182.7621 200.1176L182.4165 201.103L182.1862 201.7966L181.6102 203.0769L181.3799 204.2763L181.1495 205.1982L180.9191 206.3224L180.804 207.0478L180.3432 208.1373L180.1128 209.2008L179.8825 210.3973L179.6521 212.1804L179.4217 213.3971L179.3065 214.5791L179.0762 215.7293L178.6154 216.4403L178.0395 215.686L177.4636 216.4258L177.2332 217.6425L177.118 218.8101L177.0028 219.732L176.8876 220.5325L176.6573 221.9024L176.4269 223.0613L176.3117 223.8127L176.1965 224.5727L176.0813 226.0235L175.9662 226.7287L175.6206 227.5581L174.9295 226.9108L174.4687 226.1015L174.008 225.5178L173.6624 226.5379L173.4321 227.3529L173.0865 228.0032L172.8561 228.8095L172.5106 229.6389L172.165 230.3759L171.9346 231.5868L171.5891 232.9191L171.3587 233.6589L171.2435 234.4941L171.0132 235.3438L170.4372 236.0229L169.7461 236.5778L169.5157 237.7338L168.9398 238.1673L168.7095 238.8985L168.0183 238.5921L167.6728 239.2164L167.212 239.962L166.5209 240.5198L166.1754 241.3434L165.5994 241.9792L164.9083 241.7827L164.6779 242.7133L163.9868 242.9676L163.1805 243.1699L162.6046 243.8172L161.9135 244.8634L161.3376 245.2998L160.5313 245.3172L160.3009 244.6207L159.8401 245.2565L159.149 245.6726L158.4579 245.4212L157.7668 244.8663L157.0757 245.2507L156.7301 245.9472L156.6149 246.6639L156.1542 247.4413L155.9238 248.3574L155.4631 247.2448L155.2327 246.5078L154.8872 245.5224L154.772 244.5455L154.3112 243.9357L154.196 242.7855L153.7353 242.0977L153.0442 242.404L152.2379 242.4387L151.8923 243.7277L151.086 243.5687L150.7405 244.3577L150.1646 242.5514L149.9342 241.5515L149.1279 241.618L148.8975 242.3694L148.2064 242.6237L147.976 241.8029L147.7457 242.9185L147.2849 242.089L147.0545 243.2653L146.4786 242.8115L145.7875 243.0341L144.9812 243.115L144.4053 242.4907L143.7142 242.3087L143.1382 241.8954L142.4471 241.5255L141.8712 241.9879L141.1801 242.485L140.8345 243.5803L140.1434 243.771L139.5675 244.4646L139.2219 245.2507L138.9915 246.3142L137.7245 248.9123L137.1486 248.1523L136.9182 247.398L136.4575 246.6119L136.3423 245.4877L135.9967 246.109L135.7663 245.242L135.3056 246.1495L135.0752 245.3836L134.8448 244.297L134.6145 245.4501L133.8082 245.0773L133.2323 244.1843L132.6563 244.849L131.9652 245.216L131.2741 245.9501L130.9285 247.3315L130.8134 248.2245L130.6982 245.531L130.583 244.8172L130.007 245.3894L129.7767 246.661L129.6615 252.1202L129.2007 252.8369L129.0856 258.4695L128.9704 248.3285L128.8552 246.2766L128.5096 246.9876L128.3945 246.057L128.0489 245.349L127.8185 244.5369L127.5882 243.6641L127.1274 244.3085L126.4363 243.7797L125.9756 243.037L125.2844 243.7219L124.9389 244.5426L124.7085 245.7449L124.2478 245.1351L123.6718 247.8083L123.5567 251.6492L114.6874 252.3601L114.5722 250.4353L114.457 249.6782L114.2266 248.8632L113.9962 248.1494L113.3051 246.8142L112.614 246.661L112.0381 247.2939L111.6925 248.0945L111.4622 249.0482L111.347 248.1349L111.2318 247.3719L110.8862 248.5829L110.4255 247.3257L110.1951 246.4298L110.0799 245.5455L109.9647 244.6553L109.3888 244.1034L108.5825 244.0369L108.3521 244.8692L107.8914 244.2796L107.4307 244.9617L107.0851 242.563L106.6244 243.56L106.5092 244.3432L106.394 243.1208L106.2788 243.8577L106.1636 244.8345L105.4725 244.5542L105.2421 245.3287L104.6662 245.9587L104.3206 245.2912L103.8599 241.6382L103.284 241.2191L102.8232 240.2914L102.5929 239.5718L102.0169 238.2945L101.5562 239.2337L101.2106 240.0111L100.9803 241.1671L100.6347 241.9994L100.4043 242.9763L98.4462 254.5016L98.331 240.6903L98.2158 238.15L97.9854 237.3783L97.5247 236.7974L97.4095 237.9216L96.7184 256.5535L92.8021 232.133L92.5717 231.2457L92.111 230.2574L91.4198 230.084L91.3047 234.9738L86.6972 258.5534L86.4669 256.7789L86.3517 256.0362L86.1213 254.0161L86.0061 252.5422L85.7757 251.0712L85.6606 250.1261L85.5454 249.2736L85.315 247.9297L85.1998 248.999L85.0846 250.9556L84.9694 252.3803L84.8543 254.3397L84.7391 255.7269L84.6239 257.3049L84.5087 258.5331L84.3935 260.3018L84.2783 261.4578L84.1631 263.2669L84.048 264.9229L83.9328 267.0731L83.8176 269.2406L83.7024 278.9886L81.6291 274.379L81.2835 273.6305L80.8228 273.0207L80.1316 284.0432L80.0165 315.443L79.9013 317.1365L79.7861 318.5873L79.6709 320.8531L79.5557 322.5062L79.4405 323.9627L79.3253 324.9395L79.095 325.8817L78.6342 326.6418L78.4039 327.3787L77.9431 328.0347L77.252 328.4336L76.4457 328.5405L75.6394 328.6127L74.8331 328.659L74.0268 328.7312L73.2205 328.7601L72.4142 328.7572L71.6079 328.8584L70.8016 328.9046L69.9953 328.8757L69.189 328.8324L68.3827 328.8064L67.5764 328.7312L66.7701 328.7486L65.9638 328.7804L65.1575 328.7457L64.3512 328.8295L63.5449 328.8757L62.7386 328.8728L61.9323 328.8931L61.126 328.922L60.3197 328.8613L59.5134 328.87L58.7071 328.9595L57.9008 328.9769L57.0945 328.9884L56.2882 328.974L55.4819 328.9711L54.6756 328.9711L53.8693 328.9682L53.063 328.974L52.2567 328.948L51.4504 328.9104L50.6441 328.9133L49.8378 328.9509L49.0315 328.974L48.2252 328.9769L47.4189 328.9827L46.6126 328.9856L45.8063 328.9884L45 328.9971" fill="none" stroke="#FFB300" stroke-width="2" stroke-linejoin="bevel"></path>
</g>
<defs >
<clipPath id="zr16-c0">
<path d="M44 39l247 0l0 291l-247 0Z" fill="#000"></path>
</clipPath>
<linearGradient gradientUnits="objectBoundingBox" x1="0" y1="0.75" x2="0" y2="1" id="zr16-g0">
<stop offset="0%" stop-color="#D81B60"></stop>
<stop offset="100%" stop-color="#D81B60AA"></stop>
</linearGradient>
<clipPath id="zr16-c1">
<path d="M0 0l0 0l0 30l0 0Z" transform="matrix(1,0,0,-1,22.5,362)" fill="#000"></path>
</clipPath>
<clipPath id="zr16-c2">
<path d="M0 0l300 0l0 30l-300 0Z" transform="matrix(1,0,0,-1,22.5,362)" fill="#000"></path>
</clipPath>
<clipPath id="zr16-c3">
<path d="M300 0l0 0l0 30l0 0Z" transform="matrix(1,0,0,-1,22.5,362)" fill="#000"></path>
</clipPath>
<clipPath id="zr16-c4">
<path d="M44 39l247 0l0 291l-247 0Z" fill="#000"></path>
</clipPath>
</defs>
</svg>